<svg width="1920" height="1080" viewBox="0 0 1920 1080" xmlns="http://www.w3.org/2000/svg">
  <defs>
    <linearGradient id="wave-gradient" x1="0%" y1="0%" x2="100%" y2="0%">
      <stop offset="0%" style="stop-color:#606C38;stop-opacity:0.1"/>
      <stop offset="50%" style="stop-color:#606C38;stop-opacity:0.15"/>
      <stop offset="100%" style="stop-color:#606C38;stop-opacity:0.1"/>
    </linearGradient>
  </defs>
  <path d="M0,288L80,277.3C160,267,320,245,480,245.3C640,245,800,267,960,277.3C1120,288,1280,288,1440,261.3C1600,235,1760,181,1840,154.7L1920,128L1920,0L1840,0C1760,0,1600,0,1440,0C1280,0,1120,0,960,0C800,0,640,0,480,0C320,0,160,0,80,0L0,0Z" 
        fill="url(#wave-gradient)">
    <animate attributeName="d" 
             dur="20s" 
             repeatCount="indefinite"
             values="M0,288L80,277.3C160,267,320,245,480,245.3C640,245,800,267,960,277.3C1120,288,1280,288,1440,261.3C1600,235,1760,181,1840,154.7L1920,128L1920,0L1840,0C1760,0,1600,0,1440,0C1280,0,1120,0,960,0C800,0,640,0,480,0C320,0,160,0,80,0L0,0Z;
                     M0,160L80,181.3C160,203,320,245,480,240C640,235,800,181,960,181.3C1120,181,1280,235,1440,245.3C1600,256,1760,224,1840,208L1920,192L1920,0L1840,0C1760,0,1600,0,1440,0C1280,0,1120,0,960,0C800,0,640,0,480,0C320,0,160,0,80,0L0,0Z;
                     M0,288L80,277.3C160,267,320,245,480,245.3C640,245,800,267,960,277.3C1120,288,1280,288,1440,261.3C1600,235,1760,181,1840,154.7L1920,128L1920,0L1840,0C1760,0,1600,0,1440,0C1280,0,1120,0,960,0C800,0,640,0,480,0C320,0,160,0,80,0L0,0Z"/>
  </path>
  <path d="M0,128L80,149.3C160,171,320,213,480,224C640,235,800,213,960,192C1120,171,1280,149,1440,160C1600,171,1760,213,1840,234.7L1920,256L1920,0L1840,0C1760,0,1600,0,1440,0C1280,0,1120,0,960,0C800,0,640,0,480,0C320,0,160,0,80,0L0,0Z" 
        fill="url(#wave-gradient)" opacity="0.7">
    <animate attributeName="d" 
             dur="15s" 
             repeatCount="indefinite"
             values="M0,128L80,149.3C160,171,320,213,480,224C640,235,800,213,960,192C1120,171,1280,149,1440,160C1600,171,1760,213,1840,234.7L1920,256L1920,0L1840,0C1760,0,1600,0,1440,0C1280,0,1120,0,960,0C800,0,640,0,480,0C320,0,160,0,80,0L0,0Z;
                     M0,192L80,181.3C160,171,320,149,480,160C640,171,800,213,960,213.3C1120,213,1280,171,1440,144C1600,117,1760,107,1840,101.3L1920,96L1920,0L1840,0C1760,0,1600,0,1440,0C1280,0,1120,0,960,0C800,0,640,0,480,0C320,0,160,0,80,0L0,0Z;
                     M0,128L80,149.3C160,171,320,213,480,224C640,235,800,213,960,192C1120,171,1280,149,1440,160C1600,171,1760,213,1840,234.7L1920,256L1920,0L1840,0C1760,0,1600,0,1440,0C1280,0,1120,0,960,0C800,0,640,0,480,0C320,0,160,0,80,0L0,0Z"/>
  </path>
</svg>